<?xml version="1.0" encoding="UTF-8"?>
<svg id="Layer_2" data-name="Layer 2" xmlns="http://www.w3.org/2000/svg" xmlns:xlink="http://www.w3.org/1999/xlink" viewBox="0 0 124 124">
  <defs>
    <style>
      .cls-1 {
        fill: url(#linear-gradient);
      }

      .cls-1, .cls-2, .cls-3 {
        stroke-width: 0px;
      }

      .cls-2 {
        fill: url(#linear-gradient-2);
      }

      .cls-3 {
        fill: #fff;
      }
    </style>
    <linearGradient id="linear-gradient" x1="0" y1="62" x2="124" y2="62" gradientUnits="userSpaceOnUse">
      <stop offset="0" stop-color="#1d283a"/>
      <stop offset="1" stop-color="#1e407f"/>
    </linearGradient>
    <linearGradient id="linear-gradient-2" x1="10.14" y1="62" x2="113.85" y2="62" gradientUnits="userSpaceOnUse">
      <stop offset="0" stop-color="#1e407f"/>
      <stop offset="1" stop-color="#15263a"/>
    </linearGradient>
  </defs>
  <g id="OBJECTS">
    <g>
      <circle class="cls-1" cx="62" cy="62" r="62"/>
      <circle class="cls-2" cx="62" cy="62" r="51.85"/>
      <g>
        <path class="cls-3" d="M72.27,26.49c2.54.85,5.02,1.96,7.38,3.33.02-3.27-.55-6.37-1.81-9.16-2.39-.92-4.84-1.63-7.33-2.12.93,2.57,1.52,5.24,1.76,7.95Z"/>
        <path class="cls-3" d="M30.74,30.64c-4.95,4.95-8.47,10.79-10.58,17-1.67,5.94-1.95,11.92-.78,17.38.74.04,1.49.05,2.25.05.67-7.77,3.97-15.35,9.91-21.3,9.35-9.35,22.75-12.16,34.55-8.45.81-2.01,1.41-4.03,1.8-6.04-12.81-3.52-27.09-.26-37.15,9.8-5.01,5.01-8.32,11.06-9.97,17.45,1.45-7.5,5.08-14.67,10.89-20.47,9.96-9.96,23.91-13.51,36.72-10.65.13-2.52-.11-4.98-.74-7.33-13.11-1.69-26.83,2.48-36.9,12.55Z"/>
        <path class="cls-3" d="M85.51,39.91c-.22,2.82-.75,5.69-1.57,8.54,1.53,2.19,2.77,4.51,3.73,6.93,1.29-2.93,2.26-5.89,2.89-8.81-1.4-2.35-3.09-4.59-5.04-6.66Z"/>
        <path class="cls-3" d="M81.33,55.36c-.92,1.98-1.99,3.93-3.21,5.83.9,2.18,1.52,4.44,1.86,6.74,1.49-1.86,2.85-3.78,4.07-5.74-.63-2.35-1.54-4.65-2.72-6.84Z"/>
        <path class="cls-3" d="M95.66,33.37c2.34,5.78,2.88,12.04,1.71,18.37,4.5,13.75,1.3,29.48-9.63,40.41-5.81,5.81-12.97,9.44-20.47,10.89,6.39-1.64,12.45-4.96,17.45-9.97,9.23-9.23,12.74-22.02,10.54-33.96-1.29,3.3-3.03,6.56-5.2,9.74-.2,8.5-3.54,16.93-10.02,23.42-6.73,6.73-15.56,10.07-24.38,10.04,7.35-.54,14.56-3.62,20.18-9.24,4.97-4.97,7.95-11.17,8.95-17.62-.58.63-1.17,1.25-1.79,1.86-1.33,1.33-2.7,2.56-4.11,3.72-1.35,4.16-3.67,8.07-6.98,11.38-9.08,9.08-22.75,10.79-33.55,5.12-2.37-1.52-4.62-3.3-6.69-5.38-2.07-2.07-3.86-4.32-5.38-6.69-.21-.41-.42-.82-.61-1.24-.13-.13-.27-.25-.4-.37-.34-.34-.66-.69-.98-1.05-.54-.23-1.06-.47-1.59-.72,1.8,3.5,4.11,6.8,6.9,9.81.36.4.74.8,1.13,1.19.47.47.94.92,1.42,1.35,17.32,15.87,44.23,15.42,61-1.35,16.36-16.36,17.18-42.35,2.5-59.7Z"/>
        <path class="cls-3" d="M88.52,26.6c-1.88-1.42-3.85-2.68-5.89-3.77,1.62,3.45,2.59,7.23,2.9,11.18.76.65,1.5,1.32,2.22,2.04,1.32,1.32,2.53,2.72,3.63,4.18.19-4.9-.71-9.56-2.85-13.64Z"/>
        <path class="cls-3" d="M30.74,47.98c-4.83,4.83-7.78,10.84-8.86,17.1.68,0,1.36-.03,2.05-.07,1.23-4.8,3.72-9.35,7.48-13.11,7.89-7.89,19.25-10.21,29.18-6.96,1.13-1.49,2.14-3.02,3.04-4.58-11.15-3.81-23.99-1.28-32.89,7.62Z"/>
        <path class="cls-3" d="M71.43,37.51c2.12,1.09,4.15,2.4,6.05,3.96.81-2.33,1.41-4.65,1.77-6.91-2.19-1.5-4.5-2.75-6.89-3.74-.09,2.23-.4,4.47-.93,6.69Z"/>
        <path class="cls-3" d="M69.62,43.14c-.69,1.68-1.49,3.34-2.42,4.95,1.67,1.08,3.25,2.34,4.71,3.8.14.14.27.28.4.43,1.01-1.67,1.93-3.36,2.75-5.07-1.7-1.59-3.52-2.97-5.45-4.12Z"/>
      </g>
      <g>
        <path class="cls-3" d="M16.05,78.4l44.91-15.82c.64-.23,1.24.42.97,1.05l-19.71,45.04c-.3.68-1.29.6-1.47-.13l-24.71-28.67c-.69-.25-.68-1.22,0-1.47Z"/>
        <path class="cls-3" d="M30.85,81.64l-18.54,16.85c-.84.76-.9,2.06-.13,2.9l6.6,7.21c.76.83,2.05.89,2.89.13l18.14-16.46c.81-.73.9-1.97.21-2.81l-6.2-7.6c-.74-.91-2.1-1.01-2.97-.22Z"/>
      </g>
    </g>
  </g>
</svg>